<svg xmlns="http://www.w3.org/2000/svg" width="1024" height="1434" viewBox="0 0 1024 1434">
  <defs>
    <linearGradient id="metal" x1="0" x2="1" y1="0" y2="1"><stop stop-color="#d7a93d"/><stop offset=".48" stop-color="#4d3712"/><stop offset="1" stop-color="#d7a93d"/></linearGradient>
    <linearGradient id="accent" x1="0" x2="1"><stop stop-color="#ffe699" stop-opacity=".15"/><stop offset=".5" stop-color="#ffe699"/><stop offset="1" stop-color="#ffe699" stop-opacity=".15"/></linearGradient>
  </defs>
  <rect x="12" y="12" width="1000" height="1410" rx="34" fill="none" stroke="url(#metal)" stroke-width="7"/>
  <rect x="25" y="25" width="974" height="1384" rx="25" fill="none" stroke="#4d3712" stroke-width="8"/>
  <rect x="31" y="31" width="962" height="1372" rx="20" fill="none" stroke="#ffe699" stroke-width="3"/>
  <path d="M54 18H184L158 43H58ZM970 18H840L866 43H966ZM54 1416H184L158 1391H58ZM970 1416H840L866 1391H966Z" fill="url(#metal)"/>
  <path d="M18 54V184L43 158V58ZM1006 54V184L981 158V58ZM18 1380V1250L43 1276V1376ZM1006 1380V1250L981 1276V1376Z" fill="url(#metal)"/>
  <path d="M198 29H826M198 1405H826" fill="none" stroke="url(#accent)" stroke-width="3"/>
  <path d="M29 198V1236M995 198V1236" fill="none" stroke="url(#accent)" stroke-width="3"/>
</svg>