<svg xmlns="http://www.w3.org/2000/svg" width="1024" height="1434" viewBox="0 0 1024 1434">
  <path d="M24 78V24H78 M946 24H1000V78 M1000 1356V1410H946 M78 1410H24V1356" fill="none" stroke="#be3c64" stroke-width="5"/>
  <path d="M39 180V39H180 M844 39H985V180 M985 1254V1395H844 M180 1395H39V1254" fill="none" stroke="#f8e2e9" stroke-width="3" opacity=".9"/>
  <path d="M39 232V80 M985 232V80 M39 1202V1354 M985 1202V1354" fill="none" stroke="#be3c64" stroke-width="2" opacity=".72"/>
  <path d="M73 55H332 M692 55H951 M73 1379H332 M692 1379H951" fill="none" stroke="#be3c64" stroke-width="2" opacity=".78"/>
  <rect x="54" y="54" width="112" height="31" fill="#be3c64"/>
  <text x="110" y="75" text-anchor="middle" fill="#ffffff" font-family="monospace" font-size="18" font-weight="700">UR</text>
  <text x="512" y="80" text-anchor="middle" fill="#be3c64" font-family="monospace" font-size="14" font-weight="700" opacity=".88">CMZ ARCHIVE</text>
  <text x="512" y="1372" text-anchor="middle" fill="#be3c64" font-family="monospace" font-size="13" font-weight="700" opacity=".82">COLLECTOR EDITION</text>
</svg>