<svg xmlns="http://www.w3.org/2000/svg" viewBox="0 0 64 64" width="64" height="64" role="img" aria-label="그랜드마스터">
  <title>그랜드마스터</title>
  <defs>
    <linearGradient id="plate-grandmaster" x1="0" y1="0" x2="0" y2="1">
      <stop offset="0" stop-color="#ef4d5e"/>
      <stop offset="1" stop-color="#8d1f2c"/>
    </linearGradient>
  </defs>
  <g style="--core:#ef4d5e;--edge:#8d1f2c">
    <path d="M32 3 L57 11 V31 C57 45 46 55 32 61 C18 55 7 45 7 31 V11 Z"
          fill="url(#plate-grandmaster)" stroke="#ef4d5e" stroke-width="2.2" stroke-linejoin="round"/>
    <path d="M32 9 L51 15 V31 C51 41.5 42.5 49.5 32 54.5 C21.5 49.5 13 41.5 13 31 V15 Z"
          fill="#080d0a" opacity=".62"/>
    <path d="M32 17 L35.4 26.6 L45.6 26.6 L37.4 32.6 L40.6 42.2 L32 36.2 L23.4 42.2 L26.6 32.6 L18.4 26.6 L28.6 26.6 Z" fill="var(--edge)"/>
    <path d="M14 30 L21 33 L14 36 Z M50 30 L43 33 L50 36 Z" fill="var(--edge)" opacity=".8"/>
  </g>
</svg>
