<svg xmlns="http://www.w3.org/2000/svg" viewBox="0 0 64 64" width="64" height="64" role="img" aria-label="마스터">
  <title>마스터</title>
  <defs>
    <linearGradient id="plate-master" x1="0" y1="0" x2="0" y2="1">
      <stop offset="0" stop-color="#b06bf5"/>
      <stop offset="1" stop-color="#5f2a94"/>
    </linearGradient>
  </defs>
  <g style="--core:#b06bf5;--edge:#5f2a94">
    <path d="M32 3 L57 11 V31 C57 45 46 55 32 61 C18 55 7 45 7 31 V11 Z"
          fill="url(#plate-master)" stroke="#b06bf5" stroke-width="2.2" stroke-linejoin="round"/>
    <path d="M32 9 L51 15 V31 C51 41.5 42.5 49.5 32 54.5 C21.5 49.5 13 41.5 13 31 V15 Z"
          fill="#080d0a" opacity=".62"/>
    <path d="M32 16 L36 27 L48 27 L38 34 L42 45 L32 38 L22 45 L26 34 L16 27 L28 27 Z" fill="var(--edge)"/>
  </g>
</svg>
